<?xml version="1.0" encoding="UTF-8"?>
<svg width="470px" height="326px" viewBox="0 0 470 326" version="1.1" xmlns="http://www.w3.org/2000/svg" xmlns:xlink="http://www.w3.org/1999/xlink">
    <title>logo</title>
    <g id="page" stroke="none" stroke-width="1" fill="none" fill-rule="evenodd">
        <g id="artboard" transform="translate(-22.000000, -94.000000)" fill="#FDA32B">
            <path d="M30.6604765,290.54078 L63.3402433,306.685247 C60.1680315,313.578891 58.398463,321.257389 58.398463,329.351861 C58.398463,359.207746 82.4724017,383.407442 112.167323,383.407442 C141.862244,383.407442 209.847505,384.239389 209.847505,384.239389 L209.847505,384.239389 L209.847505,420 L112.167323,420 C62.3695829,420 22,379.415147 22,329.351861 C22,315.462543 25.1071541,302.305756 30.6604765,290.54078 L30.6604765,290.54078 Z M401.830075,238.703721 L402.719372,238.69648 C432.00922,238.219162 455.601537,214.205466 455.601537,184.648139 C455.601537,154.792254 431.530201,130.592558 401.830075,130.592558 L401.830075,130.592558 L275.196629,130.592558 L276.026765,207.30952 L239.628302,207.30952 L239.628302,94 L401.830075,94 C451.630417,94 492,134.584853 492,184.648139 C492,214.201221 477.932364,240.451343 456.161443,256.999677 C477.932364,273.548657 492,299.798779 492,329.351861 C492,379.415147 451.630417,420 401.830075,420 L401.830075,420 L239.628302,420 L239.628302,306.69048 L276.026765,306.687864 L276.026765,383.404826 L276.026765,383.404826 L282.198489,383.404985 C282.459686,383.404992 282.728278,383.404999 283.004093,383.405006 L322.608741,383.405978 C323.16062,383.405991 323.714479,383.406004 324.270144,383.406017 L368.203803,383.406973 C368.735276,383.406984 369.264012,383.406994 369.789837,383.407004 L401.830075,383.407442 C431.530201,383.407442 455.601537,359.207746 455.601537,329.351861 C455.601537,299.498592 431.530201,275.296279 401.830075,275.296279 L401.830075,275.296279 L112.167323,275.296279 C62.3695829,275.296279 22,234.711425 22,184.648139 C22,134.584853 62.3695829,94 112.167323,94 L208.192438,94 L208.192438,130.592558 L112.167323,130.592558 C82.4724017,130.592558 58.398463,154.792254 58.398463,184.648139 C58.398463,214.504025 82.4724017,238.703721 112.167323,238.703721 L401.830075,238.703721 L401.830075,238.703721 Z" id="logo"></path>
        </g>
    </g>
</svg>
